<svg xmlns="http://www.w3.org/2000/svg" width="128" height="128" viewBox="0 0 128 128">
  <defs>
    <linearGradient id="bg" x1="0%" y1="0%" x2="100%" y2="100%">
      <stop offset="0%" stop-color="#0078D4" stop-opacity="1" />
      <stop offset="100%" stop-color="#005A9E" stop-opacity="1" />
    </linearGradient>
  </defs>
  <rect x="4" y="4" width="120" height="120" rx="20" ry="20" fill="url(#bg)"/>
  <rect x="20" y="28" width="88" height="72" rx="4" ry="4" fill="white" opacity="0.95"/>
  <rect x="20" y="28" width="88" height="16" rx="4" ry="0" fill="#0078D4" opacity="0.15"/>
  <line x1="46" y1="28" x2="46" y2="100" stroke="#0078D4" stroke-width="1" opacity="0.2"/>
  <line x1="74" y1="28" x2="74" y2="100" stroke="#0078D4" stroke-width="1" opacity="0.2"/>
  <line x1="20" y1="44" x2="108" y2="44" stroke="#0078D4" stroke-width="1.5" opacity="0.3"/>
  <line x1="20" y1="58" x2="108" y2="58" stroke="#0078D4" stroke-width="1" opacity="0.15"/>
  <line x1="20" y1="72" x2="108" y2="72" stroke="#0078D4" stroke-width="1" opacity="0.15"/>
  <line x1="20" y1="86" x2="108" y2="86" stroke="#0078D4" stroke-width="1" opacity="0.15"/>
  <rect x="24" y="33" width="16" height="5" rx="1" fill="#0078D4" opacity="0.6"/>
  <rect x="50" y="33" width="18" height="5" rx="1" fill="#0078D4" opacity="0.6"/>
  <rect x="78" y="33" width="24" height="5" rx="1" fill="#0078D4" opacity="0.6"/>
  <rect x="24" y="49" width="14" height="4" rx="1" fill="#333333" opacity="0.3"/>
  <rect x="50" y="49" width="20" height="4" rx="1" fill="#333333" opacity="0.3"/>
  <rect x="78" y="49" width="16" height="4" rx="1" fill="#333333" opacity="0.3"/>
  <rect x="24" y="63" width="18" height="4" rx="1" fill="#333333" opacity="0.3"/>
  <rect x="50" y="63" width="12" height="4" rx="1" fill="#333333" opacity="0.3"/>
  <rect x="78" y="63" width="22" height="4" rx="1" fill="#333333" opacity="0.3"/>
  <rect x="24" y="77" width="10" height="4" rx="1" fill="#333333" opacity="0.3"/>
  <rect x="50" y="77" width="16" height="4" rx="1" fill="#333333" opacity="0.3"/>
  <rect x="78" y="77" width="18" height="4" rx="1" fill="#333333" opacity="0.3"/>
  <rect x="24" y="91" width="16" height="4" rx="1" fill="#333333" opacity="0.3"/>
  <rect x="50" y="91" width="14" height="4" rx="1" fill="#333333" opacity="0.3"/>
  <rect x="78" y="91" width="12" height="4" rx="1" fill="#333333" opacity="0.3"/>
  <circle cx="99" cy="17" r="4" fill="none" stroke="white" stroke-width="1.5" opacity="0.8"/>
  <line x1="102" y1="20" x2="105" y2="23" stroke="white" stroke-width="1.5" stroke-linecap="round" opacity="0.8"/>
</svg>
